<svg xmlns="http://www.w3.org/2000/svg" width="356" height="287" viewBox="0 0 356 287">
    <defs>
        <linearGradient id="resvl5tdma" x1="111.065%" x2="47.267%" y1="41.821%" y2="41.821%">
            <stop offset="0%" stop-color="#7D8FF1"/>
            <stop offset="100%" stop-color="#4756DF"/>
        </linearGradient>
        <linearGradient id="wvmy00zi6b" x1="12.741%" x2="86.422%" y1="41.199%" y2="41.199%">
            <stop offset="0%" stop-color="#AAA"/>
            <stop offset="100%" stop-color="#E9EEF0"/>
        </linearGradient>
    </defs>
    <g fill="none" fill-rule="evenodd">
        <g>
            <g transform="translate(-945.000000, -183.000000) translate(945.000000, 183.000000)">
                <path fill="#FFBE21" fill-rule="nonzero" d="M56 155H65V285H56z"/>
                <path stroke="#A15842" stroke-width="4" d="M65 154.5L56 154.5"/>
                <path fill="#8793FF" fill-rule="nonzero" d="M22.83 260c1.571-4.636 5.822-7.741 10.596-7.741s9.025 3.105 10.597 7.741c1.497-4.416 5.437-7.466 9.977-7.725-.991-1.816-2.171-3.517-3.52-5.071l-4.075-4.714c-2.595-3-3.087-7.348-1.233-10.881L48.631 225c-.971 1.005-6.584 6.41-15.103 6.41-8.52 0-14.132-5.405-15.103-6.41h-.016l3.462 6.609c1.847 3.54 1.339 7.891-1.27 10.881l-4.072 4.695c-1.35 1.554-2.534 3.255-3.529 5.071 4.49.322 8.359 3.37 9.83 7.744z"/>
                <path fill="#9EA8FF" fill-rule="nonzero" d="M51.998 266.002c-4.86 0-9.188 2.972-10.786 7.406-1.597-4.435-5.925-7.407-10.786-7.407-4.86 0-9.189 2.972-10.785 7.407-1.956-5.42-7.886-8.488-13.641-7.058.16 6.994 3.077 13.665 8.157 18.65h32.686c5.07-4.975 7.987-11.628 8.157-18.607-.978-.26-1.988-.39-3.002-.391z"/>
                <path fill="#30242A" fill-rule="nonzero" d="M31 230c8.461 0 14.036-4.216 15-5H16c.964.776 6.539 5 15 5z"/>
                <path fill="#FCBEFF" fill-rule="nonzero" d="M19.635 272c1.596-4.395 5.922-7.34 10.78-7.34s9.184 2.945 10.78 7.34c1.972-5.433 8.004-8.472 13.796-6.952.129-4.906-1.129-9.754-3.64-14.032-4.62.244-8.627 3.134-10.15 7.318-1.599-4.392-5.924-7.334-10.78-7.334-4.856 0-9.18 2.942-10.78 7.334-1.505-4.134-5.439-7.009-9.999-7.31-2.5 4.264-3.755 9.094-3.634 13.982 5.752-1.417 11.678 1.623 13.633 6.994h-.006z"/>
                <path stroke="#30242A" stroke-linecap="round" stroke-width="4" d="M32 229c.766-3.652 4.247-18.131 13-26M30 230c-.04-4.299-.417-25.407-4-38"/>
                <ellipse cx="49.133" cy="211.892" fill="#30242A" fill-rule="nonzero" rx="12.531" ry="2.825" transform="translate(49.133326, 211.891791) rotate(-23.750000) translate(-49.133326, -211.891791)"/>
                <ellipse cx="48.322" cy="173.722" fill="#30242A" fill-rule="nonzero" rx="6.945" ry="2.419" transform="translate(48.321728, 173.721611) rotate(-53.510000) translate(-48.321728, -173.721611)"/>
                <ellipse cx="15.588" cy="214.026" fill="#30242A" fill-rule="nonzero" rx="15.115" ry="2.678" transform="translate(15.588178, 214.026109) rotate(-8.600000) translate(-15.588178, -214.026109)"/>
                <path fill="#FF7235" fill-rule="nonzero" d="M9.553 193v.024c2.524 1.56 3.55 4.991 2.366 7.905-1.185 2.915-4.188 4.346-6.919 3.297v.021c6.905 3.429 13.53 3.69 14.791.586 1.262-3.105-3.33-8.404-10.238-11.833zM31.363 172.25c-1.369-.391-3.149 1.891-4.45 5.423-1.565-4.29-3.835-7.16-5.365-6.604-1.53.557-1.804 4.35-.743 8.825-2.955-1.982-5.616-2.649-6.506-1.435-1.133 1.548 1.052 5.562 4.881 8.97 1.09.979 2.262 1.84 3.501 2.571.43-1.879 1.691-3.39 3.354-4.018 1.663-.627 3.5-.285 4.884.91.574-1.361 1.032-2.779 1.369-4.234 1.236-5.247.822-9.909-.925-10.407zM61.942 196.044c-.438-1.413-3.23-1.843-6.755-1.229 2.559-3.542 3.604-6.999 2.325-8.077-1.28-1.079-4.455.584-7.439 3.77-.036-3.62-.963-6.317-2.415-6.498-1.85-.23-3.856 3.726-4.476 8.833-.184 1.46-.228 2.934-.134 4.402 1.732-.564 3.63-.203 5.04.959 1.411 1.161 2.145 2.967 1.949 4.796 1.4-.179 2.78-.488 4.123-.922 4.853-1.527 8.338-4.233 7.782-6.034z"/>
                <path fill="#30242A" fill-rule="nonzero" d="M48.346 199.027c-1.208-.971-2.848-1.279-4.346-.814.148 1.982.668 3.508 1.45 4.062.73.651 2.42.87 4.523.631.166-1.474-.444-2.93-1.627-3.879zM23.722 187.203c-1.844.428-3.248 1.491-3.722 2.818 2.246.836 4.242 1.175 5.365.867 1.184-.226 2.522-1.371 3.635-3.037-1.494-.826-3.476-1.07-5.278-.648z"/>
                <path fill="#F5EBDD" fill-rule="nonzero" d="M9.198 202.831c-.997-.722-1.402-2.315-.932-3.667.47-1.35 1.658-2.009 2.734-1.514-.122-1.952-.985-3.696-2.3-4.65L5 203.672c1.42.644 2.993.329 4.198-.84z"/>
                <path fill="#4856DF" fill-rule="nonzero" d="M10.257 202.267c-.627 1.01-.073 2.196 1.277 2.733 1.695-.903 2.62-2.368 2.445-3.876-1.467-.374-3.089.124-3.722 1.143z"/>
                <path fill="#FFB7D5" fill-rule="nonzero" d="M218.29 205H138l1.357-5.386h35.245l13.442-52.576C191.811 132.306 205.082 122 220.286 122c18.086 0 31.32 17.05 26.834 34.573l-8.306 32.486c-2.398 9.378-10.845 15.939-20.523 15.941z"/>
                <path fill="#A15842" fill-rule="nonzero" d="M162 232L166 232 166 283 162 283z" transform="translate(164.000000, 257.500000) rotate(-90.000000) translate(-164.000000, -257.500000)"/>
                <path fill="#A15842" fill-rule="nonzero" d="M196.964 282.948L183.674 204h-41.349l-13.29 78.948c-.126.76.088 1.538.588 2.126.499.587 1.232.926 2.004.926 1.235-.001 2.302-.86 2.566-2.064L151.599 204h22.815l17.4 79.936c.262 1.205 1.33 2.064 2.565 2.064.771-.002 1.503-.341 2-.929.498-.587.712-1.364.585-2.123z"/>
                <path fill="#FFBE21" fill-rule="nonzero" d="M204 232L208 232 208 283 204 283z" transform="translate(206.000000, 257.500000) rotate(-90.000000) translate(-206.000000, -257.500000)"/>
                <path fill="#FFBE21" fill-rule="nonzero" d="M240.964 282.948L227.662 204h-41.336l-13.29 78.948c-.127.76.087 1.538.587 2.126.499.587 1.232.926 2.004.926 1.234 0 2.302-.86 2.563-2.064L195.59 204h22.82l17.4 79.936c.263 1.206 1.333 2.066 2.57 2.064.77-.002 1.502-.341 2-.929.497-.587.711-1.364.584-2.123z"/>
                <path fill="#FFB7D5" fill-rule="nonzero" d="M197.99 189.969L203 170h-33.203c-13.393 0-25.084 9.25-28.404 22.474L138 206h39.733c9.553-.001 17.89-6.6 20.257-16.031z"/>
                <path stroke="#A15842" stroke-linecap="round" stroke-linejoin="round" stroke-width="4" d="M140 200.5L184 200.5M177 199L183 169M245 168.5L226 168.5M248 156.5L222 156.5"/>
                <path fill="#EFD17B" fill-rule="nonzero" d="M152.537 148.013s-25.19 6.905-35.891 12.293c-17.643 8.877-17.583 14.736-28.34 47.536-9.931 30.313-11.024 45.005-24.723 45.586-10.459.443-13.888 3.887-15.583 8.609L89.386 281.8c.985.469 2.162.083 2.684-.879.533-.985.19-2.219-.775-2.78l-.87-.506c3.846-4.69 11.266-14.683 18.663-29.861l4.71 2.212s7.608-9.952 8.813-21.24c1.57-14.578.628-24.403 7.244-30.108L207 148l-54.463.013z"/>
                <path fill="#30242A" fill-rule="nonzero" d="M59 258.691c.84-1.822 5.512-12.92 8.199-11.579C70.694 248.857 61.622 260 61.622 260L59 258.691z"/>
                <path fill="#30242A" fill-rule="nonzero" d="M48 263.688l42.017 20.107c1.011.486 2.222.08 2.743-.92.521-1 .166-2.237-.805-2.8l-.883-.515.09-.11-28.881-13.752c.433-1.21.736-2.462.905-3.736 4.323.755 13.07 1.569 13.114-2.068.048-3.39-9.505-2.029-12.996-1.07-.075-1.303-.326-2.59-.746-3.824-9.63.669-12.907 4.077-14.558 8.688z"/>
                <path fill="#EAA58B" fill-rule="nonzero" d="M86.233 239.176L79.5 236c-.122.371-.244.736-.366 1.097-4.068 12.092-7.774 18.138-16.587 18.509-.432 0-.85.041-1.26.07.423 1.228.675 2.508.75 3.803 3.527-.96 13.119-2.306 13.07 1.066-.05 3.618-8.84 2.808-13.188 2.057-.173 1.268-.482 2.514-.92 3.717L90.044 280c3.95-4.798 11.46-14.862 18.956-30.098l-22.767-10.726z"/>
                <path fill="#30242A" fill-rule="nonzero" d="M124 274.79c.106-1.995.437-14.003 2.769-13.787 3.033.28-.494 13.997-.494 13.997l-2.275-.21z"/>
                <path fill="#FFE086" fill-rule="nonzero" d="M193.568 148s-31.754 5.925-49.218 13.272c-17.633 7.42-17.462 20.596-14.29 56.388 2.85 32.042 7.942 47.601-2.532 52.392-9.606 4.397-12.943 9.908-12.487 14.948h47.286c.538 0 1.055-.215 1.435-.598.38-.383.595-.902.595-1.444 0-1.128-.909-2.042-2.03-2.042h-.798c1.492-4.91 3.654-14.492 3.952-30.35h5.863s3.015-14.018-.316-26.519c-3.483-13.097-6.668-15.333-8.571-24.279h28.454c21.73 0 37.994-20.223 33.267-41.56-1.475-6.669-3.616-10.195-3.616-10.195L193.568 148z"/>
                <path fill="#EAA58B" fill-rule="nonzero" d="M160.877 281.866h-.79c1.477-4.993 3.618-14.738 3.913-30.866h-31.587v.03c.025.323.047.647.069.971v.09c.655 10.125-.414 16.048-6.076 18.708-9.513 4.47-12.817 10.076-12.366 15.201h46.837c1.11 0 2.01-.93 2.01-2.077 0-1.147-.9-2.076-2.01-2.076v.019z"/>
                <path fill="#30242A" fill-rule="nonzero" d="M128.525 278.272c4.168-1.152 12.303-4.117 10.832-7.356-1.37-3.022-9.323 2.204-12.036 4.53-.684-1.258-1.559-2.403-2.593-3.393-8.229 4.195-11.117 9.276-10.687 13.947h46.944c1.113 0 2.015-.903 2.015-2.018 0-1.114-.902-2.017-2.015-2.017H129.27c-.118-1.254-.367-2.492-.745-3.693z"/>
                <path stroke="#A15842" stroke-linecap="round" stroke-width="4" d="M161 200.68L152 200.32M168 155c-8.404 2.185-17.385 4.867-24.19 7.763-14.514 6.2-16.867 16.375-15.456 40.237"/>
                <path fill="#FFBE21" fill-rule="nonzero" d="M266 155H275V285H266z"/>
                <path stroke="#A15842" stroke-width="4" d="M275 154.5L266 154.5"/>
                <path fill="#B84B2A" fill-rule="nonzero" d="M161.79 54.054c-4.39-.616-14.448 4.02-14.78 13.183-.333 9.163 7.997 12.107 9.33 12.763l19.327-2.948L177 56.11l-15.21-2.055z"/>
                <ellipse cx="197" cy="15.5" fill="#E96239" fill-rule="nonzero" rx="15" ry="15.5"/>
                <path fill="#30242A" fill-rule="nonzero" d="M186.916 24.992c1.024.442-7.599-18.655-12-15.676-4.141 2.81 6.8 13.438 12 15.676zM187.034 27.88c.883 1.223 21.555-7.168 18.695-12.007-2.735-4.656-19.579 10.78-18.696 12.007z"/>
                <path fill="#FFB89E" fill-rule="nonzero" d="M212.38 77.773s13.316-11.13 4.742-23.53c-5.456-7.905-20.293-4.757-20.293-4.757.36-4.34 1.537-16.846-7.84-23.718-9.377-6.87-21.273-3.253-25.607 2.17-4.334 5.421-3.244 15.552-4.685 22.785-1.442 7.233-.48 12.15 3.964 14.465 4.044 2.106 8.801.834 8.801.834l-.505 7.632s-9.168.346-14.786 2.385c-13.537 4.915-37.32 38.62-37.32 38.62-14.9-.633-28.851-1.268-28.851-1.268l7.293 21.626s18.387 6.04 31.703 2.536c13.508-3.548 26.315-22.576 26.315-22.576l4.426 12.718-7.61 21.305h66.263l-11.096-19.716c1.918-17.484 5.086-51.51 5.086-51.51z"/>
                <path fill="url(#resvl5tdma)" fill-rule="nonzero" d="M191.569 71l-17.47 31.98-7.148-30.858c-3.141.321-7.327.943-10.434 2.078-13.633 4.984-37.53 39.071-37.53 39.071-14.97-.641-28.987-1.283-28.987-1.283l7.328 21.87s18.474 6.11 31.853 2.566c13.573-3.589 26.44-22.832 26.44-22.832l4.447 12.862L152.423 148H219l-11.15-19.936c1.907-17.689 5.083-52.1 5.083-52.1-2.95-1.813-6.179-3.113-9.555-3.848-3.802-.866-7.982-.35-11.81-1.116z"/>
                <path fill="#E0E0E0" fill-rule="nonzero" d="M102.162 146H157l-12.469-39.942c-.752-2.416-2.961-4.058-5.459-4.058H92.728c-1.826-.001-3.544.882-4.623 2.377-1.078 1.495-1.39 3.422-.836 5.187l10.306 33.032c.634 2.027 2.49 3.405 4.587 3.404z"/>
                <path fill="#505050" fill-rule="nonzero" d="M109.126 120.484c1.508-2.15 8.35 3.53 8.854 3.997.262-.467 3.826-6.144 6.437-3.997 2.267 1.864-2.716 10.189-4.041 12.312-.113.13-.273.204-.44.204-.168 0-.328-.074-.44-.204-2.419-2.123-11.679-10.448-10.37-12.312z"/>
                <ellipse cx="117.145" cy="119.18" fill="#555" fill-rule="nonzero" rx="1.046" ry="3.209" transform="translate(117.145180, 119.179813) rotate(-17.300000) translate(-117.145180, -119.179813)"/>
                <path fill="#6E6B6B" fill-rule="nonzero" d="M188.844 143.011c.326.933.135 1.947-.514 2.734-.649.787-1.68 1.253-2.776 1.255h-84.559c-2.125 0-4.006-1.225-4.65-3.028L96 143l92.844.011z"/>
                <path fill="#FFBE21" fill-rule="nonzero" d="M42 145H288V154H42z"/>
                <path fill="#FFB7D5" fill-rule="nonzero" d="M238.992 189.969L244 170h-29.214c-13.388 0-25.073 9.25-28.391 22.474L183 206h35.739c9.55 0 17.886-6.599 20.253-16.031z"/>
                <path stroke="#A15842" stroke-linecap="round" stroke-linejoin="round" stroke-width="4" d="M183 201L182 205"/>
                <path fill="#EAA58A" fill-rule="nonzero" d="M88.277 114c-3.519 1.882-5.277 5.02-5.277 7.218 0 3.21 3.052 3.813 3.052 3.813s-2.277 3.832 1.682 5.63c0 0 0 3.945 3.688 3.945 0 0-.488 3.077 3.36 3.367 3.847.29 7.806-1.86 8.141-3.25.383-1.644-.651-3.019-3.443-3.455 0 0 3.769-1.885 3.172-4.264-.597-2.38-3.145-2.325-3.145-2.325s2.44-1.566 1.137-3.874-3.794-1.507-3.794-1.507.651-1.615-.488-2.844c-1.357-1.453-7.192.38-7.192.38L88.277 114z"/>
                <path stroke="#A15842" stroke-linecap="round" stroke-width="4" d="M93 134c3.111-.918 6.13-2.26 9-4M86 129c4.94-1.104 9.656-2.788 14-5M86 124c4.648-1.092 9.04-2.78 13-5"/>
                <path fill="#E96239" fill-rule="nonzero" d="M219.118 55.372c-5.48-7.937-20.381-4.776-20.381-4.776.362-4.358 1.543-16.914-7.875-23.813-9.417-6.898-21.365-3.266-25.719 2.178-1.771 2.228-2.638 5.227-3.143 8.5 2.89.487 7.128-.51 7.128-.51 5.795 6.537 10.986 7.574 10.986 7.574 4.055-4.065 11.168-3.931 12.323 2.229 1.2 6.396-8.989 9.27-8.989 9.27s-.952 11.493 4.128 15.644c1.56 1.24 3.403 2.068 5.363 2.41 3.81.761 8.005.249 11.834 1.102 3.374.729 6.603 2.02 9.55 3.82 1.164-1.028 2.227-2.164 3.176-3.394 3.34-4.247 7.335-11.957 1.62-20.234z"/>
                <path stroke="#EAA58B" stroke-linecap="round" stroke-width="4" d="M173 32c-1.425 2-3.086 3.2-5 4"/>
                <path stroke="#A15842" stroke-linecap="round" stroke-width="4" d="M173 68c1.389-.777 2.729-1.782 4-3M183 49L187 46"/>
                <path stroke="#353434" stroke-linecap="round" d="M165 57.79c.64.276 3.046.49 4-.79"/>
                <circle cx="171.5" cy="47.5" r="1.5" fill="#30242A" fill-rule="nonzero"/>
                <ellipse cx="176.5" cy="55" fill="#F84E45" fill-opacity=".378" fill-rule="nonzero" rx="2.5" ry="2"/>
                <ellipse cx="161.5" cy="52" fill="#F84E45" fill-opacity=".378" fill-rule="nonzero" rx="2.5" ry="2"/>
                <circle cx="164.5" cy="45.5" r="1.5" fill="#30242A" fill-rule="nonzero"/>
                <path stroke="#202020" stroke-linecap="round" d="M166.408 50c-.276 1.132-.516 2.363-.357 2.774.217.52.547.946.949 1.226"/>
                <circle cx="185" cy="56" r="3" fill="#F5EBDD" fill-rule="nonzero"/>
                <ellipse cx="160.484" cy="45.717" stroke="#1B1417" stroke-linecap="round" stroke-width="4" rx="6.226" ry="5.588" transform="translate(160.484337, 45.716661) rotate(-78.990000) translate(-160.484337, -45.716661)"/>
                <ellipse cx="174.209" cy="47.405" stroke="#1B1417" stroke-linecap="round" stroke-width="4" rx="6.226" ry="5.588" transform="translate(174.208536, 47.404974) rotate(-78.990000) translate(-174.208536, -47.404974)"/>
                <path stroke="#30242A" stroke-linecap="round" stroke-width="4" d="M166 47.13L169 47.87M198 51L197 55"/>
                <path stroke="#30242A" stroke-linecap="round" stroke-linejoin="round" stroke-width="4" d="M152 107L156 116M168 127.5L159 127.5M174 103L178 116 178 128"/>
                <path stroke="#30242A" stroke-linecap="round" stroke-linejoin="round" stroke-width="4" d="M160.835 75L165.344 85.975 160 85.338 179 116M206 74L197.674 85.671 205.427 85.03 177 110M208 113L203 104M218 144c-3.611-.821-10.092-2.407-14-4"/>
                <circle cx="125.5" cy="58.5" r="6.5" fill="#FFB7D5" fill-rule="nonzero"/>
                <path fill="#4756DF" fill-rule="nonzero" d="M100.8 31.83l5.578.01c.902.001 1.633.732 1.635 1.634.001.899-.726 1.628-1.625 1.63h-.005l-5.578-.01c-.902 0-1.633-.732-1.635-1.634-.001-.898.726-1.628 1.624-1.63h.006z" transform="translate(103.591446, 33.467193) rotate(50.330000) translate(-103.591446, -33.467193)"/>
                <path fill="#E0E0E0" fill-rule="nonzero" d="M113 40.426L109.364 36 44.01 90.673c-1.186.994-1.35 2.77-.366 3.968l.073.089c.472.574 1.152.936 1.889 1.006.737.069 1.47-.16 2.04-.637L68.078 78V138h5.704V73.223L113 40.426z"/>
                <path stroke="#4756DF" stroke-width="4" d="M103 41l2.247 1.84c.783.638 1.378 1.371 1.753 2.16"/>
                <circle cx="71.5" cy="71.5" r="7.5" fill="#4756DF" fill-rule="nonzero"/>
                <circle cx="70.5" cy="70.5" r="2.5" fill="#3EC1F3" fill-rule="nonzero"/>
                <path stroke="#A15842" stroke-width="4" d="M130 56L121 65"/>
                <path fill="#DFDFDF" fill-rule="nonzero" d="M119.295 40.828c-2.04-.238-3.91-1.246-5.22-2.816l-2.573-3.087c-1.894-2.263-5.278-2.576-7.561-.7-1.096.902-1.786 2.2-1.918 3.606-.132 1.406.304 2.807 1.213 3.894l2.574 3.096c1.304 1.565 1.953 3.568 1.812 5.594l-.644 9.334c-.319 4.567.85 9.116 3.334 12.974l.823 1.277L142 48.598l-1.107-1.031c-3.36-3.136-7.645-5.118-12.226-5.654l-9.372-1.085z"/>
                <path fill="#E9F4F8" fill-rule="nonzero" d="M74.891 138h-5.78l-8.542 2.178c-3.289.84-5.57 3.634-5.569 6.822h34c0-3.19-2.282-5.984-5.572-6.822L74.891 138z"/>
                <path stroke="#4756DF" stroke-linecap="round" stroke-width="4" d="M134 41L108 65M68 137.5L73 137.5M55 142.5L85 142.5"/>
                <path fill="#30242A" fill-rule="nonzero" d="M235.736 227c.603-5.464.302-17.73-6.348-27.077-6.65-9.347 2.412-5.464 5.125-2.892 4.34 4.114 8.162 8.058 11.487 21.275L235.736 227z"/>
                <path fill="#A15842" fill-rule="nonzero" d="M320.186 285H356v-.95c-.002-2.79-2.79-5.05-6.227-5.05H320l.186 6z"/>
                <path fill="#A15842" fill-rule="nonzero" d="M228.731 249.923L236.619 286h14.658v-2.247c0-3.016-2.416-5.463-5.4-5.472 0 0 7.325-5.55 11.785-11.022 0 0 7.646 9.414 18.48 7.802l.784 3.852c.841 4.12 4.429 7.08 8.593 7.087h35.526c15.757 0 23.508-2.43 23.953-11.494.028-.698-.228-1.378-.707-1.882-.48-.504-1.142-.789-1.834-.788h-9.918c-.829 0-1.613-.378-2.132-1.03l-4.222-5.293c-2.556-3.199-6.722-4.6-10.664-3.586l-8.492 2.193s-15.045-21.846-28.673-37.018c-13.025-14.485-37.525-16.048-47.176 2.818-3.102 6.175-3.969 13.251-2.449 20.003z"/>
                <path stroke="#30242A" stroke-width="4" d="M317 285v-.95c0-1.34-.822-2.625-2.286-3.572-1.464-.947-3.448-1.479-5.518-1.478H304"/>
                <path stroke="#30242A" stroke-linecap="round" stroke-width="4" d="M258 267c2.153-2.538 9.499-11.884 8.973-21.026-.563-9.782-6.476-14.974-6.476-14.974M273 261s.332 8.015 1 14M243.5 281L243.5 285M246.5 281L246.5 285M308.5 281L308.5 285M312.5 281L312.5 285"/>
                <circle cx="322" cy="272" r="2" fill="#30242A" fill-rule="nonzero"/>
                <path fill="#30242A" fill-rule="nonzero" d="M315 261.051L315 261 306 264 314.887 261.073z"/>
                <path fill="#30242A" fill-rule="nonzero" d="M293.55 277.088c-2.41 1.336-5.816 3.95-5.533 7.912h13.385l2.813-4.82c.934-1.602 2.558-2.573 4.304-2.575h.894L314 260.077l-.068-.077-8.217 2.281-7.867 10.949c-1.158 1.61-2.625 2.926-4.298 3.858z"/>
                <path fill="#EAA58B" fill-rule="nonzero" d="M273.473 235.074s-3.65 13.58 8.14 18.707c5.977 2.592 10.942.625 14.387-1.943-5.206-7.45-12.094-16.936-18.635-24.684-1.64-1.94-3.483-3.669-5.493-5.154-1.784 2.61-3.737 9.07 1.601 13.074z"/>
                <circle cx="241.5" cy="240.5" r="5.5" fill="#EAA58B" fill-rule="nonzero"/>
                <path fill="#30242A" fill-rule="nonzero" d="M341.749 271h-1.687c-.189.982.059 2 .674 2.773.616.774 1.535 1.224 2.506 1.227.198 0 .396-.02.59-.058.086-.506.142-1.017.166-1.53.025-.631-.201-1.245-.626-1.7-.425-.456-1.01-.713-1.623-.712z"/>
                <path stroke="#30242A" stroke-linecap="round" stroke-width="4" d="M350.5 281L350.5 285M352.5 281L352.5 285"/>
                <path stroke="#30242A" stroke-linecap="round" stroke-linejoin="round" stroke-width="4" d="M330 285c7.723-.638 12.328-2.352 14-6"/>
                <path fill="#EAA58A" fill-rule="nonzero" d="M203.99 118.298c-3.915-.348-7.851-.391-11.773-.13-5.61.458-13.15 1.916-16.18 3.372-3.03 1.456-14.633 6.594-11.508 8.318 2.856 1.575 8.846-.794 8.846-.794s-5.978 5.456-7.005 7.74c-1.028 2.285 2.37 3.567 2.37 3.567.894 3.9 4.898 2.224 4.898 2.224 2.522 5.328 16.149-6.216 16.149-6.216 3.242.335 6.515.198 9.717-.406 0 0 1.726.96 4.496 2.297l-.01-19.972z"/>
                <path fill="#7182ED" fill-rule="nonzero" d="M239.099 145.684c26.244-12.037-12.592-56.227-26.053-66.684l-6.75 28.676 9.513 12.668c-4.168-.694-8.152-1.171-11.809-1.452v20.02c8.328 3.91 25.829 11.036 35.099 6.772z"/>
                <path stroke="#A15842" stroke-linecap="round" stroke-width="4" d="M173 128c2.308-1.392 6.14-3.643 9-5M184 128c-6.774 4.612-12.945 10.775-16 14M187 130c-4.797 3.655-10.365 9.197-14 13"/>
                <path fill="#6E6E6E" fill-rule="nonzero" d="M262.712 130.55c.986.001 1.786.813 1.787 1.815v.27c-.001 1.002-.8 1.814-1.787 1.816H253.5v-3.902h9.21m0-2.54h-11.373c-.09 0-.177.037-.24.102-.064.065-.099.153-.098.245v8.301c0 .19.151.343.338.343h11.374c1.139 0 2.23-.46 3.035-1.28.805-.818 1.255-1.928 1.253-3.085v-.28c0-2.405-1.92-4.355-4.288-4.355v.01z"/>
                <path fill="url(#wvmy00zi6b)" fill-rule="nonzero" d="M236 121l5.972 26h14.056L262 121c-2.82 4.441-7.728 7.119-12.991 7.086C240.111 128.086 236 121 236 121z"/>
                <path fill="#555153" fill-rule="nonzero" d="M249 125c5.266.033 10.18-2.235 13-6h-26s4.109 6 13 6z"/>
            </g>
        </g>
    </g>
</svg>
